# xmcd
#
# Track frame offsets: 
#        150
#        12004
#        21367
#        40973
#        62954
#        73256
#        94394
#        144428
#        168017
#        197676
#        255670
#        286825
#        324601
#
# Disc length: 4776 seconds
#
# Revision: 0
# Processed by: cddbd v1.5.2PL0 Copyright (c) Steve Scherf et al.
# Submitted via: ExactAudioCopy v1.0b4
#
DISCID=ba12a60d
DTITLE=Harper - Epocalypse
DYEAR=2003
DGENRE=Blues Rock
TTITLE0=El Loro Triste
TTITLE1=Prelude Op. 32 No. 12 - Rachmaninoff
TTITLE2=The Poet and the Puppets
TTITLE3=Tranquillity Bass
TTITLE4=Amazon
TTITLE5=A Day In The Life
TTITLE6=Piano Concerto No. 1 - Rachmaninoff
TTITLE7=Infinium Part I
TTITLE8=Omicron
TTITLE9=Moonlight Sonata - Beethoven
TTITLE10=Salvation
TTITLE11=Barcole - Chopin
TTITLE12=Infinium Part Ii
EXTD=
EXTT0=
EXTT1=
EXTT2=
EXTT3=
EXTT4=
EXTT5=
EXTT6=
EXTT7=
EXTT8=
EXTT9=
EXTT10=
EXTT11=
EXTT12=
PLAYORDER=
